<?xml version="1.0" encoding="utf-8"?>
<!-- Generator: Adobe Illustrator 26.0.2, SVG Export Plug-In . SVG Version: 6.00 Build 0)  -->
<svg version="1.1" id="Livello_1" xmlns="http://www.w3.org/2000/svg" xmlns:xlink="http://www.w3.org/1999/xlink" x="0px" y="0px"
	 viewBox="0 0 442.76 100" style="enable-background:new 0 0 442.76 100;" xml:space="preserve">
<style type="text/css">
	.st0{fill:#FFFFFF;}
</style>
<g>
	<path class="st0" d="M32.08,58.44h2.08c-2.71,6.73-5.93,11.98-9.67,15.75c-3.74,3.77-7.78,5.66-12.12,5.66
		c-3.77,0-6.78-1.27-9.01-3.82C1.12,73.48,0,69.91,0,65.32c0-5.34,1.35-11.02,4.06-17.03c2.7-6.01,6.19-11.04,10.47-15.09
		c4.28-4.06,8.62-6.09,13.02-6.09c2.77,0,4.97,0.79,6.6,2.36c1.63,1.57,2.45,3.65,2.45,6.23c0,3.4-1.26,6.6-3.77,9.62
		c-2.52,3.02-5.8,5.57-9.86,7.64c-4.06,2.08-8.29,3.46-12.69,4.15c-0.57,2.7-0.85,5.25-0.85,7.64c0,2.96,0.63,5.2,1.89,6.74
		c1.26,1.54,2.99,2.31,5.19,2.31C21.79,73.81,26.98,68.69,32.08,58.44z M17.83,37.78c-2.96,4.72-5.22,10.16-6.79,16.32
		c3.4-0.88,6.56-2.26,9.48-4.15c2.93-1.89,5.25-4.13,6.98-6.75c1.73-2.61,2.59-5.33,2.59-8.16c0-1.45-0.24-2.53-0.71-3.25
		c-0.47-0.72-1.27-1.08-2.41-1.08C23.84,30.7,20.79,33.06,17.83,37.78z"/>
	<path class="st0" d="M78.91,70.7c1.92-2.39,3.76-5.47,5.52-9.25h2.17c-2.01,4.91-4.51,9.12-7.5,12.64
		c-2.99,3.52-6.24,5.28-9.76,5.28c-4.47,0-6.7-2.01-6.7-6.04c0-0.75,0.12-1.56,0.38-2.41c0.25-0.85,0.69-2.03,1.32-3.54l0.85-2.26
		l3.68-10.38h-0.85c-2.96,6.42-6.35,12.16-10.19,17.22c-3.84,5.06-7.64,7.59-11.41,7.59c-2.89,0-5.05-1.12-6.46-3.35
		c-1.41-2.23-2.12-5.24-2.12-9.01c0-5.47,1.46-11.37,4.39-17.69c2.93-6.32,6.59-11.62,10.99-15.9c4.4-4.28,8.71-6.42,12.92-6.42
		c3.02,0,5.24,0.98,6.65,2.93c1.41,1.95,2.03,4.53,1.84,7.74h0.28l2.74-7.55c1.76,0,3.38-0.34,4.86-1.04
		c1.48-0.69,2.66-1.57,3.54-2.64l1.51,0.85L73.96,65.42c-0.19,0.5-0.58,1.57-1.18,3.21c-0.6,1.64-0.9,2.8-0.9,3.49
		c0,0.75,0.13,1.31,0.38,1.65c0.25,0.35,0.69,0.52,1.32,0.52C75.22,74.28,76.99,73.09,78.91,70.7z M56.74,68.67
		c2.55-2.67,5-5.99,7.36-9.95c2.36-3.96,4.14-7.67,5.33-11.13c1.19-3.46,1.79-6.51,1.79-9.15c0-2.14-0.33-3.74-0.99-4.81
		c-0.66-1.07-1.75-1.6-3.26-1.6c-2.71,0-5.61,1.89-8.73,5.66c-3.11,3.77-5.74,8.37-7.88,13.77c-2.14,5.41-3.21,10.28-3.21,14.62
		c0,2.2,0.25,3.85,0.75,4.95c0.5,1.1,1.29,1.65,2.36,1.65C52.04,72.68,54.2,71.35,56.74,68.67z"/>
	<path class="st0" d="M94.2,78.53c-2.11-0.88-3.79-2.08-5.05-3.58c-1.26-1.51-1.89-3.11-1.89-4.81c0-1.26,0.39-2.28,1.18-3.07
		c0.79-0.79,1.75-1.18,2.88-1.18c0.88,0,1.56,0.28,2.03,0.85s0.96,1.57,1.46,3.02c0.88,2.26,1.92,3.95,3.11,5.05
		c1.19,1.1,2.74,1.65,4.62,1.65c2.07,0,3.68-0.69,4.81-2.08c1.13-1.38,1.7-3.24,1.7-5.57c0-1.63-0.33-3.16-0.99-4.57
		c-0.66-1.42-1.68-3.1-3.07-5.05l-2.55-3.96c-2.01-3.02-3.44-5.46-4.29-7.31c-0.85-1.85-1.27-3.85-1.27-5.99
		c0-2.89,0.76-5.47,2.26-7.74c1.51-2.26,3.54-4.04,6.09-5.33c2.55-1.29,5.33-1.93,8.35-1.93c2.39,0,4.43,0.39,6.13,1.18
		c1.7,0.79,2.97,1.76,3.82,2.92c0.85,1.16,1.27,2.31,1.27,3.44c0,1.26-0.41,2.28-1.23,3.07c-0.82,0.79-1.76,1.18-2.83,1.18
		c-0.94,0-1.65-0.31-2.12-0.94c-0.47-0.63-0.9-1.57-1.27-2.83c-0.57-1.51-1.29-2.67-2.17-3.49c-0.88-0.82-2.17-1.23-3.87-1.23
		c-1.95,0-3.54,0.63-4.76,1.89c-1.23,1.26-1.84,3.02-1.84,5.28c0,1.57,0.36,3.18,1.08,4.81c0.72,1.64,1.78,3.46,3.16,5.47l2.36,3.87
		c2.14,3.33,3.6,5.83,4.39,7.5c0.79,1.67,1.18,3.54,1.18,5.61c0,2.83-0.69,5.41-2.07,7.74c-1.39,2.33-3.29,4.15-5.71,5.47
		c-2.42,1.32-5.11,1.98-8.07,1.98C98.58,79.85,96.3,79.41,94.2,78.53z"/>
	<path class="st0" d="M114.1,98.81c-0.91-0.69-1.37-1.64-1.37-2.83c0-1.51,0.6-2.83,1.79-3.96c1.19-1.13,2.58-1.7,4.15-1.7
		c0.82,0,1.56,0.14,2.22,0.42c0.66,0.28,1.4,0.71,2.22,1.27c0.82,0.5,1.46,0.88,1.93,1.13c0.47,0.25,1.05,0.38,1.75,0.38
		c3.02,0,6.6-3.74,10.75-11.23c0.63-8.05,0.94-17.92,0.94-29.62c0-6.16-0.03-10.13-0.09-11.89c-0.06-3.08-0.28-5.17-0.66-6.27
		c-0.38-1.1-0.98-1.65-1.79-1.65c-1.01,0-2.11,1.01-3.3,3.02c-1.2,2.01-2.58,4.97-4.15,8.87h-2.17c2.07-5.47,4.18-9.73,6.32-12.78
		c2.14-3.05,4.62-4.58,7.45-4.58c2.45,0,4.21,0.98,5.28,2.92c1.07,1.95,1.64,5.32,1.7,10.09v2.83c0,11.45-0.47,21.73-1.41,30.85
		c4.78-6.16,8.47-12.06,11.08-17.69c2.61-5.63,3.92-10.52,3.92-14.67c0-2.08-0.54-4.37-1.6-6.89c-0.69-1.76-1.04-3.08-1.04-3.96
		c0-1.01,0.33-1.87,0.99-2.59c0.66-0.72,1.52-1.08,2.59-1.08c1.38,0,2.48,0.72,3.3,2.17c0.82,1.45,1.23,3.58,1.23,6.41
		c0,5.03-1.59,10.94-4.76,17.74c-3.18,6.79-7.75,14.25-13.73,22.36c-5.47,7.74-10.5,13.66-15.09,17.78
		c-4.59,4.12-9.4,6.18-14.43,6.18C116.35,99.85,115.01,99.51,114.1,98.81z"/>
	<path class="st0" d="M213.3,74.76l-13.96,5.28l-1.98-1.6V70.7h-0.38c-1.26,2.89-2.97,5.17-5.14,6.84c-2.17,1.67-4.73,2.5-7.69,2.5
		c-2.96,0-5.54-1.04-7.74-3.11c-2.2-2.08-3.9-5-5.09-8.77c-1.19-3.77-1.79-8.14-1.79-13.11c0-5.47,0.71-10.35,2.12-14.62
		c1.42-4.28,3.43-7.61,6.04-10c2.61-2.39,5.61-3.58,9.01-3.58c2.33,0,4.42,0.47,6.27,1.41c1.85,0.94,3.32,2.23,4.39,3.87V14.47
		c0-2.33-0.08-3.9-0.24-4.72c-0.16-0.82-0.61-1.23-1.37-1.23c-0.75,0-2.07,0.47-3.96,1.41l-0.94-1.98l14.43-7.17l1.23,1.32V67.3
		c0,2.52,0.11,4.2,0.33,5.05c0.22,0.85,0.8,1.27,1.74,1.27c0.69,0,1.98-0.34,3.87-1.04L213.3,74.76z M193.21,71.5
		c1.44-1.29,2.83-3.13,4.15-5.52V48.53c0-4.91-0.74-8.93-2.22-12.07c-1.48-3.14-3.63-4.72-6.46-4.72c-3.14,0-5.5,1.93-7.08,5.8
		s-2.36,8.95-2.36,15.24c0,6.29,0.74,11.31,2.22,15.05c1.48,3.74,3.69,5.61,6.65,5.61C190.06,73.44,191.76,72.79,193.21,71.5z"/>
	<path class="st0" d="M250.94,58.34c-0.94,7.36-2.91,12.82-5.9,16.37c-2.99,3.55-6.78,5.33-11.37,5.33c-3.52,0-6.59-1.05-9.2-3.16
		c-2.61-2.11-4.62-5.09-6.04-8.96c-1.41-3.87-2.12-8.38-2.12-13.54c0-5.03,0.72-9.64,2.17-13.82c1.45-4.18,3.51-7.51,6.18-10
		c2.67-2.48,5.83-3.73,9.48-3.73c5.28,0,9.31,2.22,12.08,6.65c2.77,4.43,4.15,10.27,4.15,17.5h-24.91v0.19c0,6.6,1,11.9,3.02,15.9
		c2.01,3.99,4.94,5.99,8.77,5.99c2.45,0,4.7-1.13,6.75-3.4c2.04-2.26,3.6-6.04,4.67-11.32H250.94z M225.56,47.12h15.76
		c0-10.88-2.39-16.32-7.17-16.32C229.05,30.79,226.19,36.24,225.56,47.12z"/>
	<path class="st0" d="M263.02,76.64c-0.44-0.38-0.88-0.57-1.32-0.57c-0.44,0-0.85,0.35-1.23,1.04L259.71,79h-2.07l-0.66-20.38h2.07
		c0.69,5.47,2.25,9.75,4.67,12.83c2.42,3.08,5.3,4.62,8.63,4.62c2.2,0,3.88-0.69,5.05-2.08c1.16-1.38,1.75-3.3,1.75-5.75
		c0-1.45-0.28-2.69-0.85-3.73c-0.57-1.04-1.54-2.2-2.93-3.49c-1.38-1.29-3.71-3.26-6.98-5.9c-4.09-3.21-6.9-5.91-8.44-8.11
		c-1.54-2.2-2.31-4.62-2.31-7.26c0-3.84,1.24-6.95,3.73-9.34c2.48-2.39,5.61-3.58,9.39-3.58c3.33,0,6.29,1.07,8.87,3.21
		c0.44,0.44,0.88,0.66,1.32,0.66c0.57,0,0.94-0.38,1.13-1.13l0.57-2.08h2.17L285.18,44h-2.07c-0.57-3.84-1.89-7-3.96-9.48
		c-2.08-2.48-4.62-3.73-7.64-3.73c-1.89,0-3.39,0.58-4.53,1.75c-1.13,1.16-1.7,2.69-1.7,4.58c0,1.82,0.6,3.43,1.79,4.81
		c1.19,1.38,3.62,3.52,7.26,6.41c4.65,3.65,7.91,6.7,9.76,9.15c1.85,2.45,2.78,5.38,2.78,8.77c0,4.47-1.29,7.88-3.87,10.24
		c-2.58,2.36-5.82,3.54-9.72,3.54C269.59,80.04,266.16,78.91,263.02,76.64z"/>
	<path class="st0" d="M307.73,73.53c0.31,1.01,0.94,1.71,1.89,2.12c0.94,0.41,2.39,0.61,4.34,0.61v2.26h-22.45v-2.26
		c1.95,0,3.4-0.2,4.34-0.61c0.94-0.41,1.57-1.12,1.89-2.12c0.31-1,0.47-2.58,0.47-4.72V39.76c0-2.51-0.09-4.21-0.28-5.09
		c-0.19-0.88-0.76-1.32-1.7-1.32c-0.69,0-1.89,0.35-3.59,1.04l-0.85-2.17l13.87-5.57l1.6,1.41v40.75
		C307.26,70.95,307.42,72.53,307.73,73.53z M297.59,15.94c-1.17-1.1-1.75-2.47-1.75-4.1c0-1.7,0.58-3.1,1.75-4.2
		c1.16-1.1,2.63-1.65,4.39-1.65c1.76,0,3.21,0.55,4.34,1.65c1.13,1.1,1.7,2.5,1.7,4.2c0,1.64-0.57,3-1.7,4.1
		c-1.13,1.1-2.58,1.65-4.34,1.65C300.22,17.59,298.75,17.04,297.59,15.94z"/>
	<path class="st0" d="M347.64,70.98c4.97,0,8.59,0.79,10.85,2.36c2.26,1.57,3.4,4.12,3.4,7.64c0,3.46-1.18,6.71-3.54,9.76
		c-2.36,3.05-5.6,5.49-9.72,7.31c-4.12,1.82-8.76,2.74-13.92,2.74c-5.41,0-9.91-0.98-13.49-2.93c-3.58-1.95-5.38-4.78-5.38-8.49
		c0-4.78,3.3-8.65,9.91-11.6c-3.71-1.45-5.57-3.9-5.57-7.36c0-2.01,0.63-3.84,1.89-5.47c1.26-1.63,3.05-3.17,5.38-4.62
		c-2.33-1.57-4.12-3.65-5.38-6.23c-1.26-2.58-1.89-5.5-1.89-8.77c0-3.52,0.72-6.68,2.17-9.48c1.44-2.8,3.5-4.98,6.18-6.56
		c2.67-1.57,5.77-2.36,9.29-2.36c3.52,0,6.63,0.82,9.34,2.45c1.82-1.01,3.68-1.78,5.57-2.31c1.89-0.53,3.62-0.8,5.19-0.8
		c2.33,0,3.49,0.94,3.49,2.83c0,0.94-0.3,1.71-0.9,2.31c-0.6,0.6-1.43,0.9-2.5,0.9c-1.01,0-1.98-0.13-2.93-0.38
		c-0.94-0.25-1.51-0.41-1.7-0.47c-1.82-0.57-3.24-0.79-4.24-0.66c1.89,1.64,3.35,3.66,4.39,6.08c1.04,2.42,1.56,5.14,1.56,8.16
		c0,5.41-1.59,9.8-4.76,13.16c-3.18,3.37-7.37,5.05-12.6,5.05c-2.89,0-5.5-0.53-7.83-1.6c-2.08,1.64-3.11,3.27-3.11,4.91
		c0,0.94,0.2,1.73,0.61,2.36c0.41,0.63,1.33,1.13,2.78,1.51c1.45,0.38,3.62,0.57,6.51,0.57H347.64z M347.21,93.48
		c2.99-1.1,5.3-2.52,6.93-4.24c1.63-1.73,2.45-3.51,2.45-5.33c0-1.76-0.68-2.96-2.03-3.58c-1.35-0.63-3.76-0.94-7.22-0.94h-11.7
		c-2.77,0-5.03-0.22-6.79-0.66c-3.65,2.89-5.47,5.69-5.47,8.4c0,2.2,1.12,4.09,3.35,5.66c2.23,1.57,5.64,2.36,10.24,2.36
		C340.81,95.13,344.23,94.58,347.21,93.48z M331.18,33.81c-1.16,2.2-1.74,4.94-1.74,8.21c0,4.59,0.78,8.66,2.36,12.22
		c1.57,3.55,3.93,5.33,7.08,5.33c2.32,0,4.09-1,5.28-3.02c1.19-2.01,1.79-4.68,1.79-8.02c0-4.65-0.8-8.82-2.41-12.5
		c-1.6-3.68-3.92-5.52-6.93-5.52C334.15,30.51,332.34,31.61,331.18,33.81z"/>
	<path class="st0" d="M363.68,76.27c1.89,0,3.27-0.2,4.15-0.61c0.88-0.41,1.48-1.12,1.79-2.12c0.31-1,0.47-2.58,0.47-4.72V39.76
		c0-2.58-0.09-4.29-0.28-5.14c-0.19-0.85-0.72-1.27-1.6-1.27c-0.82,0-2.07,0.38-3.77,1.13l-0.94-2.17l7.55-3.02l6.42-2.64l1.79,1.41
		v8.68h0.28c2.39-3.27,4.72-5.74,6.98-7.41c2.26-1.67,4.91-2.5,7.92-2.5c3.33,0,5.9,1.18,7.69,3.54s2.69,5.74,2.69,10.14v28.3
		c0,2.14,0.16,3.71,0.47,4.72c0.31,1.01,0.9,1.71,1.75,2.12c0.85,0.41,2.18,0.61,4.01,0.61v2.26H389.9v-2.26
		c1.7,0,2.94-0.2,3.73-0.61c0.78-0.41,1.32-1.12,1.6-2.12c0.28-1,0.42-2.58,0.42-4.72V41.08c0-5.09-1.85-7.64-5.56-7.64
		c-1.89,0-3.7,0.61-5.42,1.84c-1.73,1.23-3.54,3.03-5.42,5.42v28.11c0,2.14,0.14,3.71,0.42,4.72c0.28,1.01,0.82,1.71,1.6,2.12
		c0.79,0.41,2.03,0.61,3.73,0.61v2.26h-21.32V76.27z"/>
	<path class="st0" d="M422.01,35.74c0-5.97,4.34-10.26,10.34-10.26c6.02,0,10.36,4.29,10.36,10.26c0,5.94-4.34,10.26-10.36,10.26
		C426.35,45.99,422.01,41.68,422.01,35.74z M440.79,35.74c0-4.98-3.49-8.55-8.44-8.55c-4.92,0-8.44,3.57-8.44,8.55
		s3.52,8.55,8.44,8.55C437.32,44.29,440.79,40.72,440.79,35.74z M427.89,35.71c0-3.27,1.81-5.09,4.48-5.09c2.23,0,3.66,0.99,4.1,3
		l-1.76,0.3c-0.33-1.07-1.1-1.59-2.34-1.59c-1.51,0-2.64,0.94-2.64,3.38c0,2.45,1.13,3.35,2.64,3.35c1.26,0,2.03-0.52,2.36-1.65
		l1.73,0.3c-0.47,2.01-1.9,3.08-4.1,3.08C429.71,40.8,427.89,38.98,427.89,35.71z"/>
</g>
</svg>
